<svg width="28" height="28" viewBox="0 0 28 28" fill="none" xmlns="http://www.w3.org/2000/svg">
<path d="M23.3327 4.66669L18.666 9.33335M18.666 4.66669L23.3327 9.33335" stroke="#0075FF" stroke-width="0.875" stroke-linecap="round"/>
<path d="M18.1485 16.9727L17.6177 17.5327C17.6177 17.5327 16.3542 18.8615 12.9067 15.232C9.45917 11.6025 10.7227 10.2737 10.7227 10.2737L11.0575 9.92016C11.8812 9.05216 11.9593 7.65916 11.2395 6.64183L9.7695 4.56166C8.87816 3.30166 7.15733 3.136 6.1365 4.2105L4.306 6.13666C3.80083 6.66983 3.4625 7.35933 3.50333 8.12583C3.60833 10.0858 4.446 14.301 9.11733 19.2208C14.0722 24.4358 18.7213 24.6435 20.6218 24.4557C21.2238 24.3973 21.7465 24.0718 22.1677 23.6285L23.8243 21.8832C24.9443 20.7048 24.6293 18.6865 23.1967 17.8628L20.9683 16.5795C20.028 16.0393 18.8835 16.198 18.1485 16.9715" fill="#0075FF"/>
</svg>
